<svg width="392" height="139" viewBox="0 0 392 139" fill="none" xmlns="http://www.w3.org/2000/svg">
<ellipse cx="149" cy="63.5527" rx="50" ry="45.3947" fill="#020202"/>
<path d="M135.768 51.52H133.368C132.664 49.664 131.928 47.488 131.16 44.992C130.456 42.496 129.848 40.128 129.336 37.888C131.576 35.968 134.264 34.464 137.4 33.376C140.536 32.224 143.928 31.648 147.576 31.648C150.776 31.648 153.528 32.096 155.832 32.992C158.136 33.888 160.024 35.104 161.496 36.64C163.032 38.176 164.152 39.968 164.856 42.016C165.56 44 165.912 46.08 165.912 48.256C165.912 51.84 165.08 55.52 163.416 59.296C161.752 63.072 159.672 66.752 157.176 70.336C154.744 73.856 152.088 77.184 149.208 80.32C146.328 83.456 143.672 86.208 141.24 88.576L137.208 92.32V92.704L142.584 92.128H159.096L163.8 81.376H166.2C166.328 82.784 166.456 84.32 166.584 85.984C166.712 87.648 166.808 89.344 166.872 91.072C167 92.736 167.096 94.368 167.16 95.968C167.224 97.504 167.256 98.848 167.256 100H127.608V96.928C129.016 95.456 130.712 93.664 132.696 91.552C134.744 89.44 136.856 87.104 139.032 84.544C141.208 81.984 143.352 79.264 145.464 76.384C147.64 73.504 149.56 70.592 151.224 67.648C152.888 64.64 154.232 61.664 155.256 58.72C156.344 55.776 156.888 52.96 156.888 50.272C156.888 48.416 156.632 46.656 156.12 44.992C155.672 43.328 154.968 41.888 154.008 40.672C153.048 39.392 151.864 38.4 150.456 37.696C149.112 36.992 147.544 36.64 145.752 36.64C144.408 36.64 143.224 36.736 142.2 36.928C141.176 37.12 140.056 37.408 138.84 37.792L135.768 51.52Z" fill="white"/>
<path d="M1.44 54.304C3.872 52.768 6.432 51.68 9.12 51.04V42.88C9.952 42.176 10.912 41.568 12 41.056C13.152 40.48 14.272 39.936 15.36 39.424H17.76V52H32.16V56.8H17.76V84.64C17.76 88.48 18.368 91.2 19.584 92.8C20.8 94.4 22.624 95.2 25.056 95.2C26.208 95.2 27.648 95.136 29.376 95.008C31.104 94.816 32.576 94.496 33.792 94.048L34.464 95.488C33.952 96.064 33.216 96.672 32.256 97.312C31.36 97.952 30.304 98.56 29.088 99.136C27.936 99.712 26.656 100.192 25.248 100.576C23.84 100.96 22.4 101.152 20.928 101.152C17.088 101.152 14.144 100.064 12.096 97.888C10.112 95.712 9.12 92.192 9.12 87.328V56.8H1.44V54.304ZM39.561 76C39.561 71.968 40.073 68.416 41.097 65.344C42.185 62.208 43.721 59.584 45.705 57.472C47.689 55.296 50.057 53.664 52.809 52.576C55.625 51.424 58.729 50.848 62.121 50.848C66.089 50.848 69.513 51.456 72.393 52.672C75.273 53.888 77.609 55.616 79.401 57.856C81.257 60.032 82.601 62.656 83.433 65.728C84.329 68.8 84.777 72.224 84.777 76C84.777 84.064 82.729 90.272 78.633 94.624C74.537 98.976 69.033 101.152 62.121 101.152C58.281 101.152 54.953 100.576 52.137 99.424C49.321 98.208 46.985 96.512 45.129 94.336C43.273 92.096 41.865 89.44 40.905 86.368C40.009 83.232 39.561 79.776 39.561 76ZM48.777 76C48.777 78.88 49.033 81.6 49.545 84.16C50.121 86.72 50.985 88.96 52.137 90.88C53.353 92.736 54.921 94.208 56.841 95.296C58.761 96.384 61.065 96.928 63.753 96.928C67.209 96.928 70.025 95.232 72.201 91.84C74.441 88.448 75.561 83.168 75.561 76C75.561 73.056 75.273 70.336 74.697 67.84C74.185 65.28 73.353 63.072 72.201 61.216C71.049 59.296 69.577 57.792 67.785 56.704C65.993 55.616 63.849 55.072 61.353 55.072C57.577 55.072 54.537 56.768 52.233 60.16C49.929 63.552 48.777 68.832 48.777 76ZM228.83 59.2C228.126 59.584 227.23 60.384 226.142 61.6C225.118 62.752 224.19 64.48 223.358 66.784V95.296C224.638 95.424 225.918 95.68 227.198 96.064C228.478 96.384 229.758 96.896 231.038 97.6V100H208.382V97.6C209.534 96.96 210.622 96.48 211.646 96.16C212.67 95.84 213.694 95.552 214.718 95.296V57.568L208.382 56.8V54.304C210.43 53.408 212.542 52.704 214.718 52.192C216.894 51.616 218.974 51.168 220.958 50.848H223.358V61.024H223.742C224.318 59.744 225.118 58.464 226.142 57.184C227.23 55.904 228.446 54.752 229.79 53.728C231.198 52.704 232.702 51.936 234.302 51.424C235.966 50.848 237.662 50.656 239.39 50.848C239.838 51.68 240.222 52.608 240.542 53.632C240.926 54.592 241.278 55.616 241.598 56.704V59.2H228.83ZM285.066 93.28C284.554 94.368 283.754 95.392 282.666 96.352C281.578 97.312 280.33 98.144 278.922 98.848C277.514 99.552 275.978 100.096 274.314 100.48C272.65 100.928 270.954 101.152 269.226 101.152C265.45 101.152 262.122 100.576 259.242 99.424C256.362 98.208 253.962 96.512 252.042 94.336C250.122 92.096 248.65 89.44 247.626 86.368C246.666 83.296 246.186 79.84 246.186 76C246.186 67.808 248.074 61.568 251.85 57.28C255.626 52.992 260.97 50.848 267.882 50.848C270.122 50.848 272.33 51.168 274.506 51.808C276.682 52.384 278.602 53.376 280.266 54.784C281.994 56.192 283.37 58.08 284.394 60.448C285.482 62.752 286.026 65.632 286.026 69.088C286.026 70.176 285.962 71.296 285.834 72.448C285.77 73.536 285.61 74.72 285.354 76H255.402C255.402 78.688 255.722 81.216 256.362 83.584C257.066 85.888 258.09 87.904 259.434 89.632C260.778 91.36 262.474 92.736 264.522 93.76C266.57 94.72 268.97 95.2 271.722 95.2C273.962 95.2 276.234 94.88 278.538 94.24C280.842 93.6 282.57 92.768 283.722 91.744L285.066 93.28ZM267.498 55.072C263.85 55.072 261.066 56.32 259.146 58.816C257.226 61.248 256.074 65.568 255.69 71.776H276.81C276.874 71.2 276.906 70.656 276.906 70.144C276.97 69.568 277.002 69.024 277.002 68.512C277.002 64.416 276.234 61.152 274.698 58.72C273.162 56.288 270.762 55.072 267.498 55.072ZM345.923 100H325.283V97.6C327.011 96.704 328.899 95.936 330.947 95.296V72.544C330.947 67.68 330.243 63.84 328.835 61.024C327.427 58.208 324.867 56.8 321.155 56.8C319.555 56.8 318.051 57.088 316.643 57.664C315.299 58.24 314.083 59.04 312.995 60.064C311.971 61.024 311.075 62.144 310.307 63.424C309.539 64.64 308.931 65.92 308.483 67.264V95.296C310.467 95.68 312.387 96.448 314.243 97.6V100H293.507V97.6C295.107 96.768 297.219 96 299.843 95.296V57.568L293.507 56.8V54.304C295.171 53.6 297.091 52.96 299.267 52.384C301.443 51.808 303.715 51.296 306.083 50.848H308.483V61.6H308.579C309.923 58.656 311.843 56.128 314.339 54.016C316.899 51.904 319.971 50.848 323.555 50.848C326.115 50.848 328.387 51.168 330.371 51.808C332.419 52.384 334.115 53.44 335.459 54.976C336.803 56.512 337.827 58.592 338.531 61.216C339.235 63.776 339.587 67.04 339.587 71.008V95.296C342.147 95.744 344.259 96.512 345.923 97.6V100ZM348.971 54.304C351.403 52.768 353.963 51.68 356.651 51.04V42.88C357.483 42.176 358.443 41.568 359.531 41.056C360.683 40.48 361.803 39.936 362.891 39.424H365.291V52H379.691V56.8H365.291V84.64C365.291 88.48 365.899 91.2 367.115 92.8C368.331 94.4 370.155 95.2 372.587 95.2C373.739 95.2 375.179 95.136 376.907 95.008C378.635 94.816 380.107 94.496 381.323 94.048L381.995 95.488C381.483 96.064 380.747 96.672 379.787 97.312C378.891 97.952 377.835 98.56 376.619 99.136C375.467 99.712 374.187 100.192 372.779 100.576C371.371 100.96 369.931 101.152 368.459 101.152C364.619 101.152 361.675 100.064 359.627 97.888C357.643 95.712 356.651 92.192 356.651 87.328V56.8H348.971V54.304Z" fill="#888888"/>
<path d="M201.16 133.947L200.08 137.499H199.456C199.376 136.715 199.312 135.923 199.264 135.123C199.232 134.323 199.216 133.539 199.216 132.771H200.848C201.04 132.547 201.256 132.195 201.496 131.715C201.736 131.235 201.96 130.619 202.168 129.867C202.392 129.099 202.576 128.187 202.72 127.131C202.88 126.059 202.96 124.811 202.96 123.387C202.624 123.291 202.32 123.171 202.048 123.027C201.776 122.883 201.528 122.731 201.304 122.571V121.947H211.504V122.571C211.072 122.859 210.544 123.051 209.92 123.147V132.771H212.056C212.072 133.539 212.056 134.323 212.008 135.123C211.96 135.923 211.888 136.715 211.792 137.499H211.192L210.112 133.947H201.16ZM204.28 123.147C204.28 124.587 204.208 125.843 204.064 126.915C203.92 127.987 203.744 128.907 203.536 129.675C203.344 130.427 203.136 131.059 202.912 131.571C202.688 132.067 202.488 132.467 202.312 132.771H207.76V123.147H204.28ZM213.742 127.947C213.742 126.939 213.87 126.051 214.126 125.283C214.398 124.499 214.782 123.843 215.278 123.315C215.774 122.771 216.366 122.363 217.054 122.091C217.758 121.803 218.534 121.659 219.382 121.659C220.374 121.659 221.23 121.811 221.95 122.115C222.67 122.419 223.254 122.851 223.702 123.411C224.166 123.955 224.502 124.611 224.71 125.379C224.934 126.147 225.046 127.003 225.046 127.947C225.046 129.963 224.534 131.515 223.51 132.603C222.486 133.691 221.11 134.235 219.382 134.235C218.422 134.235 217.59 134.091 216.886 133.803C216.182 133.499 215.598 133.075 215.134 132.531C214.67 131.971 214.318 131.307 214.078 130.539C213.854 129.755 213.742 128.891 213.742 127.947ZM216.046 127.947C216.046 128.667 216.11 129.347 216.238 129.987C216.382 130.627 216.598 131.187 216.886 131.667C217.19 132.131 217.582 132.499 218.062 132.771C218.542 133.043 219.118 133.179 219.79 133.179C220.654 133.179 221.358 132.755 221.902 131.907C222.462 131.059 222.742 129.739 222.742 127.947C222.742 127.211 222.67 126.531 222.526 125.907C222.398 125.267 222.19 124.715 221.902 124.251C221.614 123.771 221.246 123.395 220.798 123.123C220.35 122.851 219.814 122.715 219.19 122.715C218.246 122.715 217.486 123.139 216.91 123.987C216.334 124.835 216.046 126.155 216.046 127.947ZM230.991 133.947H226.767V133.347C227.295 133.091 227.823 132.899 228.351 132.771L228.711 123.387C228.375 123.259 228.079 123.123 227.823 122.979C227.567 122.835 227.335 122.699 227.127 122.571V121.947H231.807L234.279 128.955L234.735 130.611H234.807L235.311 128.931L237.879 121.947H242.415V122.571C242.207 122.699 241.975 122.811 241.719 122.907C241.463 123.003 241.167 123.083 240.831 123.147L241.311 132.771C241.839 132.867 242.367 133.059 242.895 133.347V133.947H237.807V133.347C237.967 133.267 238.159 133.179 238.383 133.083C238.607 132.987 238.895 132.883 239.247 132.771L238.767 123.051H238.575L234.639 133.947H233.991L230.103 123.051H229.911L229.551 132.771C230.127 132.947 230.607 133.139 230.991 133.347V133.947ZM253.488 130.803C253.488 131.155 253.496 131.459 253.512 131.715C253.528 131.971 253.544 132.243 253.56 132.531L255.216 132.771V133.275C254.816 133.483 254.368 133.667 253.872 133.827C253.392 133.987 252.928 134.107 252.48 134.187H251.88C251.72 133.819 251.624 133.419 251.592 132.987C251.56 132.539 251.536 132.051 251.52 131.523H251.4C251.336 131.843 251.208 132.171 251.016 132.507C250.84 132.827 250.6 133.115 250.296 133.371C250.008 133.627 249.664 133.835 249.264 133.995C248.864 134.155 248.408 134.235 247.896 134.235C246.92 134.235 246.12 133.939 245.496 133.347C244.888 132.755 244.584 131.979 244.584 131.019C244.584 130.283 244.728 129.683 245.016 129.219C245.32 128.739 245.76 128.363 246.336 128.091C246.912 127.819 247.624 127.627 248.472 127.515C249.32 127.387 250.304 127.291 251.424 127.227C251.488 126.539 251.504 125.923 251.472 125.379C251.456 124.819 251.368 124.347 251.208 123.963C251.064 123.563 250.84 123.259 250.536 123.051C250.248 122.827 249.864 122.715 249.384 122.715C249.16 122.715 248.904 122.731 248.616 122.763C248.344 122.779 248.072 122.843 247.8 122.955L246.672 125.835H246.048C245.888 125.355 245.744 124.859 245.616 124.347C245.504 123.835 245.432 123.331 245.4 122.835C246.008 122.467 246.68 122.179 247.416 121.971C248.168 121.763 249 121.659 249.912 121.659C250.728 121.659 251.376 121.779 251.856 122.019C252.352 122.243 252.728 122.539 252.984 122.907C253.24 123.275 253.408 123.683 253.488 124.131C253.568 124.579 253.608 125.027 253.608 125.475C253.608 126.435 253.584 127.363 253.536 128.259C253.504 129.139 253.488 129.987 253.488 130.803ZM248.856 132.747C249.256 132.747 249.608 132.667 249.912 132.507C250.216 132.347 250.472 132.155 250.68 131.931C250.888 131.707 251.056 131.483 251.184 131.259C251.312 131.019 251.4 130.819 251.448 130.659V128.139C250.52 128.139 249.76 128.187 249.168 128.283C248.576 128.379 248.112 128.531 247.776 128.739C247.44 128.947 247.208 129.211 247.08 129.531C246.952 129.835 246.888 130.187 246.888 130.587C246.888 131.275 247.064 131.811 247.416 132.195C247.768 132.563 248.248 132.747 248.856 132.747ZM262.538 121.947H267.626V122.571C267.45 122.667 267.242 122.763 267.002 122.859C266.778 122.955 266.506 123.051 266.186 123.147V129.723L265.922 131.955H266.042L266.978 130.155L272.114 121.947H275.354V122.571C274.842 122.859 274.314 123.051 273.77 123.147V132.771C274.074 132.851 274.362 132.939 274.634 133.035C274.906 133.115 275.146 133.219 275.354 133.347V133.947H270.266V133.347C270.714 133.091 271.194 132.899 271.706 132.771V125.907L271.946 124.011H271.826L270.914 125.811L265.826 133.947H262.538V133.347C262.81 133.219 263.074 133.115 263.33 133.035C263.586 132.939 263.85 132.851 264.122 132.771V123.147C263.498 123.051 262.97 122.859 262.538 122.571V121.947ZM289.933 121.947H294.565V122.571C294.405 122.699 294.189 122.811 293.917 122.907C293.661 123.003 293.341 123.115 292.957 123.243C292.413 123.899 291.837 124.563 291.229 125.235C290.621 125.907 289.981 126.579 289.309 127.251C289.661 127.635 290.029 128.059 290.413 128.523C290.813 128.987 291.213 129.467 291.613 129.963C292.013 130.459 292.413 130.947 292.813 131.427C293.213 131.907 293.605 132.355 293.989 132.771L295.117 133.347V133.947H292.309L291.541 133.395C290.821 132.531 290.165 131.667 289.573 130.803C288.981 129.939 288.381 129.091 287.773 128.259H286.813V132.771C287.133 132.851 287.421 132.939 287.677 133.035C287.949 133.115 288.181 133.219 288.373 133.347V133.947H283.069V133.347C283.501 133.091 284.029 132.899 284.653 132.771V123.147C284.093 123.035 283.565 122.843 283.069 122.571V121.947H287.989V122.571C287.829 122.683 287.653 122.787 287.461 122.883C287.285 122.979 287.069 123.067 286.813 123.147V127.635L287.917 127.395C288.557 126.659 289.165 125.971 289.741 125.331C290.317 124.691 290.853 123.995 291.349 123.243C291.077 123.131 290.821 123.027 290.581 122.931C290.357 122.819 290.141 122.699 289.933 122.571V121.947ZM306.661 130.443C306.661 131.083 306.517 131.635 306.229 132.099C305.941 132.547 305.549 132.915 305.053 133.203C304.573 133.491 304.013 133.707 303.373 133.851C302.733 133.979 302.061 134.043 301.357 134.043C300.845 134.043 300.437 134.035 300.133 134.019C299.829 134.019 299.573 134.011 299.365 133.995C299.157 133.979 298.981 133.963 298.837 133.947C298.693 133.947 298.533 133.947 298.357 133.947H296.053V133.347C296.549 133.091 297.077 132.899 297.637 132.771V123.147C297.029 123.035 296.501 122.843 296.053 122.571V121.947H298.213C298.597 121.947 298.925 121.947 299.197 121.947C299.469 121.931 299.725 121.915 299.965 121.899C300.205 121.883 300.445 121.875 300.685 121.875C300.925 121.859 301.189 121.851 301.477 121.851C302.885 121.851 303.981 122.067 304.765 122.499C305.549 122.915 305.941 123.651 305.941 124.707C305.941 125.091 305.861 125.435 305.701 125.739C305.541 126.043 305.333 126.307 305.077 126.531C304.821 126.755 304.533 126.947 304.213 127.107C303.893 127.251 303.581 127.355 303.277 127.419C303.725 127.451 304.149 127.539 304.549 127.683C304.965 127.827 305.325 128.027 305.629 128.283C305.949 128.523 306.197 128.827 306.373 129.195C306.565 129.547 306.661 129.963 306.661 130.443ZM299.797 132.915C300.021 132.963 300.301 132.987 300.637 132.987C300.989 132.987 301.277 132.987 301.501 132.987C302.445 132.987 303.149 132.787 303.613 132.387C304.077 131.971 304.309 131.387 304.309 130.635C304.309 129.851 304.029 129.267 303.469 128.883C302.909 128.483 302.189 128.283 301.309 128.283H299.797V132.915ZM299.797 127.563L302.461 127.323C302.749 127.179 303.037 126.915 303.325 126.531C303.629 126.131 303.781 125.611 303.781 124.971C303.781 124.187 303.541 123.651 303.061 123.363C302.597 123.059 301.909 122.907 300.997 122.907C300.821 122.907 300.621 122.915 300.397 122.931C300.173 122.931 299.973 122.955 299.797 123.003V127.563ZM317.637 130.803C317.637 131.155 317.645 131.459 317.661 131.715C317.677 131.971 317.693 132.243 317.709 132.531L319.365 132.771V133.275C318.965 133.483 318.517 133.667 318.021 133.827C317.541 133.987 317.077 134.107 316.629 134.187H316.029C315.869 133.819 315.773 133.419 315.741 132.987C315.709 132.539 315.685 132.051 315.669 131.523H315.549C315.485 131.843 315.357 132.171 315.165 132.507C314.989 132.827 314.749 133.115 314.445 133.371C314.157 133.627 313.813 133.835 313.413 133.995C313.013 134.155 312.557 134.235 312.045 134.235C311.069 134.235 310.269 133.939 309.645 133.347C309.037 132.755 308.733 131.979 308.733 131.019C308.733 130.283 308.877 129.683 309.165 129.219C309.469 128.739 309.909 128.363 310.485 128.091C311.061 127.819 311.773 127.627 312.621 127.515C313.469 127.387 314.453 127.291 315.573 127.227C315.637 126.539 315.653 125.923 315.621 125.379C315.605 124.819 315.517 124.347 315.357 123.963C315.213 123.563 314.989 123.259 314.685 123.051C314.397 122.827 314.013 122.715 313.533 122.715C313.309 122.715 313.053 122.731 312.765 122.763C312.493 122.779 312.221 122.843 311.949 122.955L310.821 125.835H310.197C310.037 125.355 309.893 124.859 309.765 124.347C309.653 123.835 309.581 123.331 309.549 122.835C310.157 122.467 310.829 122.179 311.565 121.971C312.317 121.763 313.149 121.659 314.061 121.659C314.877 121.659 315.525 121.779 316.005 122.019C316.501 122.243 316.877 122.539 317.133 122.907C317.389 123.275 317.557 123.683 317.637 124.131C317.717 124.579 317.757 125.027 317.757 125.475C317.757 126.435 317.733 127.363 317.685 128.259C317.653 129.139 317.637 129.987 317.637 130.803ZM313.005 132.747C313.405 132.747 313.757 132.667 314.061 132.507C314.365 132.347 314.621 132.155 314.829 131.931C315.037 131.707 315.205 131.483 315.333 131.259C315.461 131.019 315.549 130.819 315.597 130.659V128.139C314.669 128.139 313.909 128.187 313.317 128.283C312.725 128.379 312.261 128.531 311.925 128.739C311.589 128.947 311.357 129.211 311.229 129.531C311.101 129.835 311.037 130.187 311.037 130.587C311.037 131.275 311.213 131.811 311.565 132.195C311.917 132.563 312.397 132.747 313.005 132.747ZM325.986 138.747H320.658V138.147C321.202 137.891 321.73 137.699 322.242 137.571V123.339L320.658 123.147V122.523C321.17 122.299 321.69 122.123 322.218 121.995C322.762 121.851 323.29 121.739 323.802 121.659H324.402V124.347H324.426C324.746 123.531 325.194 122.883 325.77 122.403C326.346 121.907 327.098 121.659 328.026 121.659C329.45 121.659 330.554 122.131 331.338 123.075C332.122 124.019 332.514 125.555 332.514 127.683C332.514 128.691 332.378 129.603 332.106 130.419C331.85 131.235 331.474 131.923 330.978 132.483C330.498 133.043 329.906 133.475 329.202 133.779C328.514 134.083 327.746 134.235 326.898 134.235C326.306 134.235 325.842 134.195 325.506 134.115C325.17 134.051 324.802 133.931 324.402 133.755V137.571C324.658 137.603 324.914 137.659 325.17 137.739C325.426 137.835 325.698 137.971 325.986 138.147V138.747ZM327.258 123.147C326.474 123.147 325.85 123.395 325.386 123.891C324.922 124.387 324.594 125.067 324.402 125.931V132.651C324.69 132.827 325.01 132.963 325.362 133.059C325.73 133.139 326.202 133.179 326.778 133.179C327.306 133.179 327.778 133.043 328.194 132.771C328.626 132.499 328.986 132.115 329.274 131.619C329.578 131.123 329.81 130.547 329.97 129.891C330.13 129.219 330.21 128.483 330.21 127.683C330.21 127.027 330.154 126.427 330.042 125.883C329.946 125.323 329.778 124.843 329.538 124.443C329.314 124.027 329.01 123.707 328.626 123.483C328.258 123.259 327.802 123.147 327.258 123.147ZM341.725 133.947H336.397V133.347C336.893 133.091 337.421 132.899 337.981 132.771V123.003H335.749L334.693 125.883H334.069C333.989 125.195 333.925 124.523 333.877 123.867C333.829 123.195 333.797 122.555 333.781 121.947H344.341C344.325 122.523 344.293 123.155 344.245 123.843C344.213 124.515 344.149 125.195 344.053 125.883H343.429L342.373 123.003H340.141V132.771C340.893 132.963 341.421 133.155 341.725 133.347V133.947ZM345.952 121.947H351.04V122.571C350.864 122.667 350.656 122.763 350.416 122.859C350.192 122.955 349.92 123.051 349.6 123.147V129.723L349.336 131.955H349.456L350.392 130.155L355.528 121.947H358.768V122.571C358.256 122.859 357.728 123.051 357.184 123.147V132.771C357.488 132.851 357.776 132.939 358.048 133.035C358.32 133.115 358.56 133.219 358.768 133.347V133.947H353.68V133.347C354.128 133.091 354.608 132.899 355.12 132.771V125.907L355.36 124.011H355.24L354.328 125.811L349.24 133.947H345.952V133.347C346.224 133.219 346.488 133.115 346.744 133.035C347 132.939 347.264 132.851 347.536 132.771V123.147C346.912 123.051 346.384 122.859 345.952 122.571V121.947ZM365.783 138.747H360.455V138.147C360.999 137.891 361.527 137.699 362.039 137.571V123.339L360.455 123.147V122.523C360.967 122.299 361.487 122.123 362.015 121.995C362.559 121.851 363.087 121.739 363.599 121.659H364.199V124.347H364.223C364.543 123.531 364.991 122.883 365.567 122.403C366.143 121.907 366.895 121.659 367.823 121.659C369.247 121.659 370.351 122.131 371.135 123.075C371.919 124.019 372.311 125.555 372.311 127.683C372.311 128.691 372.175 129.603 371.903 130.419C371.647 131.235 371.271 131.923 370.775 132.483C370.295 133.043 369.703 133.475 368.999 133.779C368.311 134.083 367.543 134.235 366.695 134.235C366.103 134.235 365.639 134.195 365.303 134.115C364.967 134.051 364.599 133.931 364.199 133.755V137.571C364.455 137.603 364.711 137.659 364.967 137.739C365.223 137.835 365.495 137.971 365.783 138.147V138.747ZM367.055 123.147C366.271 123.147 365.647 123.395 365.183 123.891C364.719 124.387 364.391 125.067 364.199 125.931V132.651C364.487 132.827 364.807 132.963 365.159 133.059C365.527 133.139 365.999 133.179 366.575 133.179C367.103 133.179 367.575 133.043 367.991 132.771C368.423 132.499 368.783 132.115 369.071 131.619C369.375 131.123 369.607 130.547 369.767 129.891C369.927 129.219 370.007 128.483 370.007 127.683C370.007 127.027 369.951 126.427 369.839 125.883C369.743 125.323 369.575 124.843 369.335 124.443C369.111 124.027 368.807 123.707 368.423 123.483C368.055 123.259 367.599 123.147 367.055 123.147ZM377.985 126.843C378.257 126.811 378.561 126.771 378.897 126.723C379.233 126.675 379.721 126.651 380.361 126.651C381.561 126.651 382.521 126.931 383.241 127.491C383.977 128.051 384.345 128.931 384.345 130.131C384.345 130.771 384.225 131.339 383.985 131.835C383.761 132.315 383.441 132.723 383.025 133.059C382.609 133.379 382.113 133.627 381.537 133.803C380.961 133.963 380.329 134.043 379.641 134.043C379.209 134.043 378.721 134.027 378.177 133.995C377.649 133.963 377.081 133.947 376.473 133.947H374.241V133.347C374.513 133.187 374.777 133.067 375.033 132.987C375.289 132.907 375.553 132.835 375.825 132.771V123.147C375.521 123.099 375.241 123.027 374.985 122.931C374.729 122.819 374.481 122.699 374.241 122.571V121.947H379.425V122.571C379.057 122.795 378.577 122.987 377.985 123.147V126.843ZM377.985 132.915C378.193 132.931 378.401 132.947 378.609 132.963C378.817 132.979 379.033 132.987 379.257 132.987C381.065 132.987 381.969 132.027 381.969 130.107C381.969 129.659 381.897 129.283 381.753 128.979C381.625 128.659 381.441 128.411 381.201 128.235C380.977 128.043 380.713 127.907 380.409 127.827C380.105 127.747 379.785 127.707 379.449 127.707C379.225 127.707 378.985 127.715 378.729 127.731C378.473 127.731 378.225 127.755 377.985 127.803V132.915ZM390.273 133.947H385.113V133.347C385.337 133.235 385.561 133.131 385.785 133.035C386.009 132.939 386.257 132.851 386.529 132.771V123.147C385.921 123.035 385.441 122.843 385.089 122.571V121.947H390.273V122.571C390.081 122.699 389.849 122.811 389.577 122.907C389.305 122.987 389.009 123.067 388.689 123.147V132.771C388.961 132.851 389.225 132.939 389.481 133.035C389.737 133.115 390.001 133.219 390.273 133.347V133.947Z" fill="#888888"/>
</svg>
